<svg width="200" height="200" version="1.1" xmlns="http://www.w3.org/2000/svg"  viewBox="0 0 200 200" fill="none"><path fill="rgb(0,0,0)" stroke="rgb(0,0,0)" stroke-width="1" opacity="1" d="M 82.5 0 L 108.5 0 L 109.5 1 L 114.5 1 L 115.5 2 L 118.5 2 L 119.5 3 L 121 3 L 121 4.5 L 117 8.5 L 117 9.5 L 115 11.5 Q 115.25 13.25 114 13.5 L 114 15 L 112.5 15 Q 112.25 13.75 110.5 14 L 108.5 12 Q 106.75 12.25 106.5 11 L 104.5 11 L 103.5 10 Q 101 10.5 100.5 9 L 100 9.5 L 100 40.5 L 100 41 L 100.5 41 L 109.5 41 Q 110.25 40.75 110 43.5 L 111 44.5 Q 110.5 47 112 47.5 Q 112 49.5 112 50 L 111.5 50 L 100.5 50 Q 99.75 49.75 100 50.5 L 100 90.5 L 100 91 L 100.5 91 L 134.5 91 L 136 92.5 L 136 93.5 L 138 95.5 L 138 96.5 L 140 99.5 L 139.5 100 L 100.5 100 L 100 100 L 100 100.5 L 100 140.5 L 100 141 L 100.5 141 L 133.5 141 L 135 139.5 L 135 137.5 L 136 136.5 Q 135.5 134 137 133.5 L 137 129.5 L 138 128.5 L 138 124.5 L 139 123.5 L 139 118.5 L 140 117.5 L 140 110.5 L 141 109.5 L 141 102.5 L 141.5 102 L 144 104.5 L 144 105.5 L 146 107.5 L 146 108.5 L 148 110.5 Q 147.75 112.25 149 112.5 L 149 120.5 L 148 121.5 L 148 126.5 L 147 127.5 L 147 131.5 L 146 132.5 L 146 135.5 L 145 136.5 Q 145.75 139.75 144 140.5 L 144.5 141 L 170.5 141 L 171 141 L 171 139.5 L 173 137.5 L 173 136.5 L 175 133.5 L 175 131.5 L 176 130.5 L 176 129.5 L 178 126.5 L 178 124.5 L 179 123.5 Q 178.5 121 180 120.5 L 180 117.5 L 181 116.5 Q 180.25 113.25 182 112.5 L 182 106.5 L 183 105.5 L 183 100.5 L 183 100 L 182.5 100 L 160.5 100 Q 159.5 100.37 160 98.5 L 162 96.5 L 162 95.5 L 164 93.5 L 164 92.5 L 165.5 91 L 182.5 91 Q 183.25 91.25 183 90.5 L 183 86.5 L 182 85.5 L 182 79.5 L 181 78.5 L 181 75.5 L 180 74.5 L 180 71.5 Q 178.25 70.75 179 67.5 L 180 66.5 L 180 65.5 Q 181.25 65.25 181 63.5 L 182 62.5 L 182 61.5 Q 183.25 61.25 183 59.5 L 184.5 58 Q 185.5 58.5 185 60.5 L 187 63.5 L 187 65.5 L 188 66.5 L 188 69.5 L 189 70.5 L 189 73.5 L 190 74.5 Q 189.25 77.75 191 78.5 L 191 84.5 L 192 85.5 L 192 105.5 L 191 106.5 L 191 112.5 L 190 113.5 L 190 117.5 Q 188.25 118.25 189 121.5 L 188 122.5 L 188 124.5 L 187 125.5 Q 187.5 128 186 128.5 L 186 130.5 L 184 133.5 L 184 135.5 L 183 136.5 L 183 137.5 L 182 138.5 L 182 139.5 Q 180.75 139.75 181 141.5 L 179 143.5 L 179 144.5 Q 177.75 144.75 178 146.5 L 176 148.5 L 176 149.5 L 174 151.5 L 174 152.5 L 171 155.5 L 171 156.5 L 156.5 171 L 155.5 171 L 152.5 174 L 151.5 174 L 146.5 178 L 145.5 178 Q 145.25 179.25 143.5 179 L 141.5 181 L 140.5 181 L 139.5 182 L 138.5 182 L 135.5 184 L 133.5 184 L 130.5 186 L 128.5 186 L 127.5 187 L 125.5 187 Q 125 188.5 122.5 188 L 121.5 189 Q 118.25 188.25 117.5 190 L 113.5 190 L 112.5 191 L 106.5 191 L 105.5 192 L 85.5 192 L 84.5 191 L 78.5 191 L 77.5 190 L 74.5 190 L 73.5 189 L 70.5 189 Q 69.75 187.25 66.5 188 Q 66 186.5 63.5 187 L 60.5 185 L 58.5 185 L 57.5 184 L 56.5 184 L 55.5 183 L 54.5 183 L 53.5 182 L 52.5 182 L 51.5 181 L 50.5 181 L 49.5 180 L 48.5 180 Q 48.25 178.75 46.5 179 L 44.5 177 L 43.5 177 L 41.5 175 L 40.5 175 L 37.5 172 L 36.5 172 L 31.5 167 L 30.5 167 L 24 160.5 L 24 159.5 L 20 155.5 L 20 154.5 L 17 151.5 L 17 150.5 L 15 148.5 L 15 147.5 L 13 145.5 L 13 144.5 L 12 143.5 L 12 142.5 L 11 141.5 L 11 140.5 L 10 139.5 L 10 138.5 L 9 137.5 L 9 136.5 L 8 135.5 L 8 134.5 L 6 131.5 L 6 129.5 L 5 128.5 L 5 126.5 L 4 125.5 L 4 123.5 Q 2.5 123 3 120.5 L 2 119.5 L 2 115.5 L 1 114.5 L 1 109.5 L 0 108.5 L 0 82.5 L 1 81.5 L 1 77.5 L 2 76.5 L 2 72.5 L 3 71.5 Q 2.5 69 4 68.5 L 4 65.5 L 5 64.5 L 5 62.5 L 7 59.5 L 7 57.5 L 9 54.5 L 9 53.5 L 10 52.5 L 10 51.5 Q 11.25 51.25 11 49.5 L 13 47.5 L 13 46.5 Q 14.25 46.25 14 44.5 L 16 42.5 L 16 41.5 L 18 39.5 L 18 38.5 L 22 34.5 L 22 33.5 L 33.5 22 L 34.5 22 L 38.5 18 L 39.5 18 L 41.5 16 L 42.5 16 L 44.5 14 L 45.5 14 Q 45.75 12.75 47.5 13 L 49.5 11 L 50.5 11 L 51.5 10 L 52.5 10 L 55.5 8 L 57.5 8 L 60.5 6 Q 62.25 6.25 62.5 5 L 64.5 5 L 65.5 4 L 68.5 4 L 69.5 3 Q 72 3.5 72.5 2 L 76.5 2 L 77.5 1 L 81.5 1 L 82.5 0 Z M 91 9 L 90 10 L 88 10 L 85 12 L 84 12 L 83 13 L 82 13 L 78 17 L 77 17 L 74 20 L 74 21 L 70 25 L 70 26 L 68 28 L 68 29 L 66 31 L 66 32 L 64 35 L 64 36 L 63 37 L 63 38 L 62 39 L 62 40 L 61 41 L 62 41 L 91 41 L 91 41 L 91 41 L 91 10 L 91 9 Z M 65 14 L 64 15 L 62 15 L 61 16 Q 59 16 59 17 L 58 17 L 57 18 L 56 18 L 55 19 L 54 19 L 52 21 Q 50 21 50 22 L 49 22 L 47 24 L 46 24 L 42 28 L 41 28 L 28 41 L 29 41 L 51 41 L 51 41 L 51 40 L 53 37 L 53 35 L 54 34 L 54 33 L 56 30 L 56 29 L 58 27 Q 58 25 59 25 L 59 24 L 61 22 L 61 21 L 65 17 Q 65 15 66 15 Q 66 14 65 14 Z M 21 50 L 21 52 L 19 54 Q 19 55 18 56 L 18 57 L 17 58 L 17 59 L 16 60 L 16 62 L 14 65 Q 15 67 13 68 L 13 70 L 12 71 L 12 73 L 11 74 L 11 77 L 10 78 L 10 83 L 9 84 L 9 91 Q 9 91 10 91 L 41 91 L 41 91 Q 41 90 41 88 L 42 87 L 42 76 L 43 75 L 43 69 L 44 68 L 44 63 Q 46 62 45 59 L 46 58 L 46 55 L 47 54 L 47 51 Q 47 50 47 50 L 22 50 L 21 50 Z M 57 50 Q 57 50 57 53 L 56 54 L 56 57 L 55 58 L 55 61 L 54 62 L 54 65 L 53 66 L 53 71 L 52 72 L 52 78 L 51 79 L 51 91 Q 51 91 52 91 L 91 91 L 91 91 L 91 91 L 91 51 L 91 50 L 91 50 L 58 50 L 57 50 Z M 9 100 L 9 101 L 9 109 L 10 110 L 10 114 Q 12 114 11 118 L 12 119 L 12 122 Q 14 122 13 125 L 14 126 L 14 128 L 15 129 L 15 130 L 16 131 Q 16 132 17 133 L 17 134 L 18 135 L 18 136 L 19 137 L 19 138 L 20 139 L 20 140 L 22 141 L 47 141 L 47 141 Q 47 141 47 139 L 46 138 L 46 135 L 45 134 L 45 130 L 44 129 L 44 125 L 43 124 L 43 118 L 42 117 L 42 105 L 41 104 L 41 101 Q 41 100 41 100 L 10 100 L 9 100 Z M 51 100 L 51 101 L 51 114 L 52 115 L 52 121 L 53 122 L 53 126 L 54 127 L 54 131 Q 56 131 55 135 Q 57 135 56 138 L 57 139 Q 57 141 58 141 L 91 141 L 91 141 L 91 141 L 91 101 L 91 100 L 91 100 L 52 100 L 51 100 Z M 29 150 L 28 151 Q 29 151 29 153 L 39 162 L 40 162 L 44 166 L 45 166 L 48 169 Q 49 169 50 170 L 51 170 L 53 172 Q 54 172 55 173 L 56 173 L 57 174 L 58 174 L 59 175 L 60 175 L 61 176 L 62 176 L 63 177 Q 65 177 66 178 Q 67 178 67 178 L 62 173 L 62 172 L 60 170 L 60 169 L 58 167 Q 58 165 57 165 L 57 164 L 56 163 L 56 162 L 55 161 L 55 160 L 54 159 L 54 158 L 53 157 L 53 156 L 52 155 L 52 154 L 51 153 Q 51 150 51 150 L 29 150 Z M 61 150 L 61 152 L 63 155 L 63 156 L 64 157 Q 64 158 65 159 L 65 160 L 66 161 L 66 162 L 68 164 L 68 165 L 71 168 L 71 169 L 80 177 L 81 177 L 83 179 Q 84 179 85 180 L 86 180 L 87 181 L 88 181 L 89 182 Q 90 182 91 182 L 91 182 L 91 151 L 91 150 L 91 150 L 62 150 L 61 150 Z M 100 150 L 100 151 L 100 182 L 100 182 Q 100 182 103 182 L 104 181 L 106 181 L 109 179 L 110 179 L 113 176 L 114 176 L 120 170 L 120 169 L 123 166 L 123 165 L 125 163 Q 125 161 126 161 L 126 160 L 127 159 L 127 158 L 128 157 L 128 156 L 129 155 L 129 154 L 130 153 L 130 152 L 131 151 L 131 150 L 101 150 L 100 150 Z M 141 150 L 141 152 L 139 155 L 139 157 L 137 160 L 137 161 L 136 162 L 136 163 L 134 165 Q 134 166 133 167 L 133 168 L 131 170 L 131 171 L 128 174 L 128 175 L 125 178 L 126 178 Q 127 178 128 177 L 129 177 L 130 176 L 132 176 L 135 174 L 136 174 L 137 173 L 138 173 L 140 171 Q 141 171 142 170 L 143 170 L 145 168 L 146 168 L 149 165 L 150 165 L 155 160 L 156 160 L 159 157 L 159 156 L 164 151 L 164 150 L 142 150 L 141 150 Z " /><path fill="rgb(0,0,0)" stroke="rgb(0,0,0)" stroke-width="1" opacity="1" d="M 142.5 0 L 157.5 0 L 158.5 1 Q 161 0.5 161.5 2 L 163.5 2 L 164.5 3 L 165.5 3 Q 165.75 4.25 167.5 4 L 169.5 6 L 170.5 6 L 177 12.5 L 177 13.5 L 179 15.5 L 179 16.5 L 180 17.5 L 180 18.5 Q 181.25 18.75 181 20.5 L 182 21.5 L 182 23.5 L 183 24.5 L 183 28.5 L 184 29.5 L 184 35.5 L 183 36.5 L 183 41.5 Q 181.5 42 182 44.5 L 181 45.5 L 181 46.5 L 179 49.5 L 179 51.5 L 178 52.5 L 178 53.5 L 177 54.5 L 177 55.5 L 176 56.5 L 176 57.5 L 175 58.5 L 175 59.5 L 174 60.5 L 174 61.5 L 173 62.5 L 173 63.5 L 171 66.5 L 171 67.5 L 169 69.5 L 169 70.5 L 168 71.5 L 168 72.5 Q 166.75 72.75 167 74.5 L 165 76.5 L 165 77.5 Q 163.75 77.75 164 79.5 L 162 81.5 L 162 82.5 Q 160.75 82.75 161 84.5 L 157 89.5 L 157 90.5 Q 155.75 90.75 156 92.5 L 154 94.5 L 154 95.5 L 152 97.5 L 152 98.5 L 150.5 100 L 149.5 100 L 148 98.5 L 148 97.5 L 144 92.5 L 144 91.5 Q 142.75 91.25 143 89.5 L 139 84.5 L 139 83.5 Q 137.75 83.25 138 81.5 L 136 79.5 L 136 78.5 Q 134.75 78.25 135 76.5 L 133 74.5 L 133 73.5 Q 131.75 73.25 132 71.5 L 130 69.5 L 130 68.5 L 129 67.5 L 129 66.5 L 128 65.5 L 128 64.5 Q 126.75 64.25 127 62.5 L 126 61.5 L 126 60.5 L 125 59.5 L 125 58.5 L 124 57.5 L 124 56.5 L 123 55.5 L 123 54.5 L 121 51.5 L 121 49.5 L 120 48.5 L 120 47.5 L 118 44.5 L 118 42.5 L 117 41.5 L 117 37.5 L 116 36.5 L 116 29.5 L 117 28.5 L 117 24.5 Q 118.5 24 118 21.5 L 119 20.5 L 119 19.5 L 120 18.5 L 120 17.5 Q 121.25 17.25 121 15.5 L 123 13.5 L 123 12.5 L 129.5 6 L 130.5 6 L 132.5 4 L 133.5 4 L 136.5 2 L 138.5 2 L 139.5 1 Q 142 1.5 142.5 0 Z M 147 17 Q 146 19 144 18 L 142 20 L 141 20 L 136 25 Q 136 26 135 27 L 135 28 L 134 29 L 134 38 Q 136 38 135 41 L 137 43 L 137 44 L 140 46 L 141 46 L 143 48 Q 144 48 145 49 L 149 49 L 150 50 Q 151 50 152 49 L 156 49 Q 156 48 158 48 L 160 46 L 161 46 L 163 44 L 163 43 L 165 41 Q 165 38 166 38 L 166 30 L 165 29 L 165 27 Q 164 26 164 25 L 160 20 L 159 20 L 157 18 Q 154 19 154 17 L 147 17 Z " /></svg>